<?xml version="1.0" encoding="UTF-8" standalone="no"?>
<svg
   xmlns:dc="http://purl.org/dc/elements/1.1/"
   xmlns:cc="http://creativecommons.org/ns#"
   xmlns:rdf="http://www.w3.org/1999/02/22-rdf-syntax-ns#"
   xmlns:svg="http://www.w3.org/2000/svg"
   xmlns="http://www.w3.org/2000/svg"
   xmlns:sodipodi="http://sodipodi.sourceforge.net/DTD/sodipodi-0.dtd"
   xmlns:inkscape="http://www.inkscape.org/namespaces/inkscape"
   version="1.1"
   width="256"
   height="256"
   id="svg6"
   sodipodi:docname="Fachberater Hochwasserschutz Wasserwacht.svg"
   inkscape:version="0.92.1 r15371">
  <metadata
     id="metadata12">
    <rdf:RDF>
      <cc:Work
         rdf:about="">
        <dc:format>image/svg+xml</dc:format>
        <dc:type
           rdf:resource="http://purl.org/dc/dcmitype/StillImage" />
      </cc:Work>
    </rdf:RDF>
  </metadata>
  <defs
     id="defs10" />
  <sodipodi:namedview
     pagecolor="#ffffff"
     bordercolor="#666666"
     borderopacity="1"
     objecttolerance="10"
     gridtolerance="10"
     guidetolerance="10"
     inkscape:pageopacity="0"
     inkscape:pageshadow="2"
     inkscape:window-width="1366"
     inkscape:window-height="715"
     id="namedview8"
     showgrid="false"
     inkscape:zoom="0.921875"
     inkscape:cx="128"
     inkscape:cy="128"
     inkscape:window-x="-8"
     inkscape:window-y="-8"
     inkscape:window-maximized="1"
     inkscape:current-layer="svg6" />
  <g
     id="g4493">
    <g
       transform="translate(-96.544369,113.26381)"
       id="g4500">
      <path
         inkscape:connector-curvature="0"
         style="fill:none;stroke:#000000;stroke-width:5;stroke-linecap:butt;stroke-linejoin:miter;stroke-miterlimit:4;stroke-dasharray:none;stroke-opacity:1"
         id="path3780-4-4-8-8"
         d="m 99.045719,98.870071 c 0,0 -0.264149,-13.32437 9.460921,-13.97747 9.77075,-0.656146 10.3562,7.265035 10.3562,7.265035 0,0 0.30639,6.735827 8.11679,6.735827 7.81038,0 8.37446,-6.67634 8.37446,-6.67634 0,0 1.94572,-7.579966 10.92923,-7.312057 9.87626,0.294533 9.94718,14.049006 9.94718,14.049006" />
      <path
         inkscape:connector-curvature="0"
         style="fill:none;stroke:#000000;stroke-width:5;stroke-linecap:butt;stroke-linejoin:miter;stroke-miterlimit:4;stroke-dasharray:none;stroke-opacity:1"
         id="path3780-4-4-8-8-2"
         d="m 99.770667,115.2128 c 0,0 -0.264149,-13.32437 9.460923,-13.97747 9.77075,-0.65614 10.3562,7.26504 10.3562,7.26504 0,0 0.30639,6.73582 8.11678,6.73582 7.81039,0 8.37447,-6.67634 8.37447,-6.67634 0,0 1.94572,-7.57996 10.92922,-7.31205 9.87626,0.29453 9.94718,14.049 9.94718,14.049" />
    </g>
    <path
       inkscape:connector-curvature="0"
       id="path4572"
       d="m 22.017795,253.50006 39.99217,-0.28467 29.7899,-79.05176 29.993205,-0.33947 18.43094,48.90914 29.99321,-0.33946"
       style="fill:none;stroke:#000000;stroke-width:5;stroke-linecap:butt;stroke-linejoin:miter;stroke-miterlimit:4;stroke-dasharray:none;stroke-opacity:1" />
  </g>
</svg>
