<!DOCTYPE svg PUBLIC "-//W3C//DTD SVG 1.1//EN" "http://www.w3.org/Graphics/SVG/1.1/DTD/svg11.dtd">
<svg 
	version="1.1" 
	xmlns="http://www.w3.org/2000/svg" 
	width="256" 
	height="256">
  <g
     id="g4500"
     transform="translate(-96.544369,113.26381)">
    <path
       d="m 99.045719,98.870071 c 0,0 -0.264149,-13.32437 9.460921,-13.97747 9.77075,-0.656146 10.3562,7.265035 10.3562,7.265035 0,0 0.30639,6.735827 8.11679,6.735827 7.81038,0 8.37446,-6.67634 8.37446,-6.67634 0,0 1.94572,-7.579966 10.92923,-7.312057 9.87626,0.294533 9.94718,14.049006 9.94718,14.049006"
       id="path3780-4-4-8-8"
       style="fill:none;stroke:#000000;stroke-width:5;stroke-linecap:butt;stroke-linejoin:miter;stroke-miterlimit:4;stroke-dasharray:none;stroke-opacity:1"
       inkscape:connector-curvature="0" />
    <path
       d="m 99.770667,115.2128 c 0,0 -0.264149,-13.32437 9.460923,-13.97747 9.77075,-0.65614 10.3562,7.26504 10.3562,7.26504 0,0 0.30639,6.73582 8.11678,6.73582 7.81039,0 8.37447,-6.67634 8.37447,-6.67634 0,0 1.94572,-7.57996 10.92922,-7.31205 9.87626,0.29453 9.94718,14.049 9.94718,14.049"
       id="path3780-4-4-8-8-2"
       style="fill:none;stroke:#000000;stroke-width:5;stroke-linecap:butt;stroke-linejoin:miter;stroke-miterlimit:4;stroke-dasharray:none;stroke-opacity:1"
       inkscape:connector-curvature="0" />
  </g>
  <path
     style="fill:none;stroke:#000000;stroke-width:5;stroke-linecap:butt;stroke-linejoin:miter;stroke-miterlimit:4;stroke-dasharray:none;stroke-opacity:1"
     d="m 22.017795,253.50006 39.99217,-0.28467 29.7899,-79.05176 29.993205,-0.33947 18.43094,48.90914 29.99321,-0.33946"
     id="path4572"
     inkscape:connector-curvature="0" />
</svg>
