<?xml version="1.0" encoding="UTF-8" standalone="no"?>
<svg
   xmlns:dc="http://purl.org/dc/elements/1.1/"
   xmlns:cc="http://creativecommons.org/ns#"
   xmlns:rdf="http://www.w3.org/1999/02/22-rdf-syntax-ns#"
   xmlns:svg="http://www.w3.org/2000/svg"
   xmlns="http://www.w3.org/2000/svg"
   xmlns:sodipodi="http://sodipodi.sourceforge.net/DTD/sodipodi-0.dtd"
   xmlns:inkscape="http://www.inkscape.org/namespaces/inkscape"
   version="1.1"
   width="120"
   height="120"
   id="svg2"
   sodipodi:docname="TZ Wasserrettung.svg"
   inkscape:version="0.92.1 r15371">
  <metadata
     id="metadata10">
    <rdf:RDF>
      <cc:Work
         rdf:about="">
        <dc:format>image/svg+xml</dc:format>
        <dc:type
           rdf:resource="http://purl.org/dc/dcmitype/StillImage" />
      </cc:Work>
    </rdf:RDF>
  </metadata>
  <sodipodi:namedview
     pagecolor="#ffffff"
     bordercolor="#666666"
     borderopacity="1"
     objecttolerance="10"
     gridtolerance="10"
     guidetolerance="10"
     inkscape:pageopacity="0"
     inkscape:pageshadow="2"
     inkscape:window-width="1366"
     inkscape:window-height="715"
     id="namedview8"
     showgrid="false"
     inkscape:zoom="1.9666667"
     inkscape:cx="-26.694914"
     inkscape:cy="60.000001"
     inkscape:window-x="-8"
     inkscape:window-y="-8"
     inkscape:window-maximized="1"
     inkscape:current-layer="svg2" />
  <defs
     id="defs4" />
  <g
     id="g4487"
     transform="matrix(0.82539045,0,0,0.82539045,11.273453,7.855616)">
    <rect
       width="45.939793"
       height="45.939793"
       x="82.494125"
       y="-2.3587198"
       transform="rotate(45)"
       id="rect2985"
       style="fill:none;stroke:#000000;stroke-width:5;stroke-miterlimit:4;stroke-dasharray:none;stroke-opacity:1" />
    <path
       d="m 21.248807,25.37744 c 0,0 -0.355588,-17.93679 12.735957,-18.81597 13.153031,-0.88328 13.941145,9.77993 13.941145,9.77993 0,0 0.412453,9.06753 10.926524,9.06753 10.514067,0 11.273407,-8.98745 11.273407,-8.98745 0,0 2.619254,-10.20388 14.712531,-9.84323 13.295069,0.39649 13.39054,18.91227 13.39054,18.91227"
       id="path3780-4-4-8-8"
       style="fill:none;stroke:#000000;stroke-width:5;stroke-linecap:butt;stroke-linejoin:miter;stroke-miterlimit:4;stroke-dasharray:none;stroke-opacity:1"
       inkscape:connector-curvature="0" />
    <path
       d="m 22.224706,47.37744 c 0,0 -0.355588,-17.93679 12.735957,-18.81597 13.153031,-0.88328 13.941145,9.77993 13.941145,9.77993 0,0 0.412453,9.06753 10.926524,9.06753 10.514067,0 11.273407,-8.98745 11.273407,-8.98745 0,0 2.619254,-10.20388 14.712531,-9.84323 13.295067,0.39649 13.390537,18.91227 13.390537,18.91227"
       id="path3780-4-4-8-8-2"
       style="fill:none;stroke:#000000;stroke-width:5;stroke-linecap:butt;stroke-linejoin:miter;stroke-miterlimit:4;stroke-dasharray:none;stroke-opacity:1"
       inkscape:connector-curvature="0" />
  </g>
</svg>
