<?xml version="1.0" encoding="UTF-8" standalone="no"?>
<svg
   xmlns:dc="http://purl.org/dc/elements/1.1/"
   xmlns:cc="http://creativecommons.org/ns#"
   xmlns:rdf="http://www.w3.org/1999/02/22-rdf-syntax-ns#"
   xmlns:svg="http://www.w3.org/2000/svg"
   xmlns="http://www.w3.org/2000/svg"
   xmlns:sodipodi="http://sodipodi.sourceforge.net/DTD/sodipodi-0.dtd"
   xmlns:inkscape="http://www.inkscape.org/namespaces/inkscape"
   version="1.1"
   width="256"
   height="256"
   id="svg25"
   sodipodi:docname="Gruppe Abwehr Umweltgefahren DLRG.svg"
   inkscape:version="0.92.1 r15371">
  <metadata
     id="metadata29">
    <rdf:RDF>
      <cc:Work
         rdf:about="">
        <dc:format>image/svg+xml</dc:format>
        <dc:type
           rdf:resource="http://purl.org/dc/dcmitype/StillImage" />
      </cc:Work>
    </rdf:RDF>
  </metadata>
  <sodipodi:namedview
     pagecolor="#ffffff"
     bordercolor="#666666"
     borderopacity="1"
     objecttolerance="10"
     gridtolerance="10"
     guidetolerance="10"
     inkscape:pageopacity="0"
     inkscape:pageshadow="2"
     inkscape:window-width="1366"
     inkscape:window-height="715"
     id="namedview27"
     showgrid="false"
     inkscape:zoom="2.140625"
     inkscape:cx="128"
     inkscape:cy="128"
     inkscape:window-x="-8"
     inkscape:window-y="-8"
     inkscape:window-maximized="1"
     inkscape:current-layer="svg25" />
  <defs
     id="defs5">
    <clipPath
       id="symbol">
      <rect
         x="10"
         y="64"
         width="236"
         height="128"
         id="rect2" />
    </clipPath>
  </defs>
  <rect
     x="10"
     y="64"
     width="236"
     height="128"
     fill="#FFFFFF"
     stroke="#000000"
     stroke-width="10"
     clip-path="url(#symbol)"
     id="rect7" />
  <rect
     x="10"
     y="64"
     width="236"
     height="128"
     fill="none"
     stroke="#000000"
     stroke-width="1"
     id="rect9" />
  <circle
     cx="64"
     cy="48"
     id="ellipse19-2"
     r="10"
     style="fill:#000000" />
  <circle
     cx="192"
     cy="48"
     id="ellipse23-0"
     r="10"
     style="fill:#000000" />
  <text
     xml:space="preserve"
     style="font-style:normal;font-variant:normal;font-weight:normal;font-stretch:normal;font-size:29.33333397px;line-height:1.25;font-family:'Roboto Slab';-inkscape-font-specification:'Roboto Slab';letter-spacing:0px;word-spacing:0px;fill:#000000;fill-opacity:1;stroke:none"
     x="235.07422"
     y="181"
     id="text4497"><tspan
       sodipodi:role="line"
       id="tspan4495"
       x="235.07422"
       y="181"
       style="font-style:normal;font-variant:normal;font-weight:bold;font-stretch:normal;font-family:'Roboto Slab';-inkscape-font-specification:'Roboto Slab Bold';text-align:end;text-anchor:end">DLRG</tspan></text>
  <g
     id="g4521"
     transform="matrix(0.95372764,0,0,0.95372764,13.051452,2.8041027)">
    <g
       style="fill:none;stroke:#000000;stroke-opacity:1"
       transform="translate(110.71533,16.309425)"
       id="g4510">
      <path
         inkscape:connector-curvature="0"
         style="fill:none;stroke:#000000;stroke-width:5;stroke-linecap:butt;stroke-linejoin:miter;stroke-miterlimit:4;stroke-dasharray:none;stroke-opacity:1"
         id="path3780-4-4-8-8"
         d="m -19.143952,135.17438 c 0,0 -0.264149,-13.32437 9.4609235,-13.97747 9.77074751,-0.65615 10.3561991,7.26503 10.3561991,7.26503 0,0 0.30639129,6.73583 8.1167836,6.73583 7.8103898,0 8.3744658,-6.67634 8.3744658,-6.67634 0,0 1.945717,-7.57997 10.929225,-7.31206 9.87626,0.29454 9.947181,14.04901 9.947181,14.04901" />
      <path
         inkscape:connector-curvature="0"
         style="fill:none;stroke:#000000;stroke-width:5;stroke-linecap:butt;stroke-linejoin:miter;stroke-miterlimit:4;stroke-dasharray:none;stroke-opacity:1"
         id="path3780-4-4-8-8-2"
         d="m -18.419004,151.51711 c 0,0 -0.264149,-13.32437 9.4609235,-13.97747 9.77074745,-0.65615 10.356199,7.26503 10.356199,7.26503 0,0 0.3063913,6.73583 8.1167837,6.73583 7.8103898,0 8.3744658,-6.67634 8.3744658,-6.67634 0,0 1.945717,-7.57997 10.929225,-7.31206 9.876259,0.29454 9.947179,14.04901 9.947179,14.04901" />
    </g>
    <path
       style="fill:none;stroke:#000000;stroke-width:5;stroke-miterlimit:4;stroke-dasharray:none;stroke-opacity:1"
       inkscape:connector-curvature="0"
       id="path17"
       d="m 103.38269,96.475933 42.85714,30.857137 M 137.66841,96.475933 94.811258,127.33307" />
    <path
       style="fill:#000000;fill-opacity:1;stroke-width:0.42857143"
       inkscape:connector-curvature="0"
       id="path19"
       d="m 144.75039,126.29015 m 3.47537,2.43348 -6.33091,1.11631 m 6.33091,-1.11631 -1.11631,-6.3309 -5.2146,7.44721 z" />
    <path
       style="fill:#000000;fill-opacity:1;stroke-width:0.42857143"
       inkscape:connector-curvature="0"
       id="path21"
       d="m 96.300708,126.29015 m -3.47537,2.43348 6.33091,1.11631 -5.2146,-7.44721 z" />
    <circle
       style="fill:#000000;fill-opacity:1;stroke-width:0.42857143"
       r="8.5714283"
       id="ellipse23"
       cy="100.76165"
       cx="99.096977" />
    <circle
       style="fill:#000000;fill-opacity:1;stroke-width:0.42857143"
       r="8.5714283"
       id="ellipse25"
       cy="100.76165"
       cx="141.95412" />
  </g>
</svg>
